<svg width="23" height="28" viewBox="0 0 23 28" fill="none" xmlns="http://www.w3.org/2000/svg">
<path d="M5.70177 27.4639C5.14344 27.0968 4.64861 26.6432 4.23628 26.1205C3.78273 25.581 3.3625 25.015 2.97788 24.4256C2.07529 23.1188 1.36746 21.6905 0.876106 20.1847C0.285841 18.4355 0 16.7589 0 15.119C0 13.2876 0.400885 11.6889 1.18496 10.3455C1.76618 9.29553 2.62072 8.41808 3.66018 7.80397C4.66753 7.18561 5.82499 6.84721 7.01062 6.82443C7.42566 6.82443 7.87257 6.8839 8.3469 6.9976C8.68761 7.09293 9.10265 7.24335 9.60973 7.43052C10.2549 7.67628 10.6097 7.82671 10.7301 7.86344C11.108 7.99988 11.4257 8.05935 11.6752 8.05935C11.8646 8.05935 12.1319 7.99988 12.4354 7.90892C12.6062 7.84945 12.9283 7.74449 13.3894 7.54946C13.846 7.38504 14.2053 7.24423 14.4911 7.13928C14.9292 7.01159 15.3531 6.89352 15.731 6.83405C16.1789 6.76425 16.6336 6.74576 17.0858 6.77895C17.8696 6.82957 18.6415 6.99371 19.377 7.26609C20.5796 7.7445 21.5522 8.49139 22.2761 9.55315C21.9701 9.73952 21.683 9.95449 21.4186 10.1951C20.843 10.6994 20.3528 11.2914 19.9664 11.9486C19.4613 12.8469 19.1995 13.8588 19.2062 14.8864C19.2248 16.1484 19.5522 17.26 20.1973 18.2212C20.6716 18.9336 21.288 19.5428 22.0088 20.0115C22.3779 20.2573 22.6956 20.4261 23 20.5397C22.8575 20.977 22.7053 21.4003 22.5257 21.8201C22.1182 22.7616 21.6244 23.6641 21.0504 24.5165C20.5389 25.2503 20.1381 25.7969 19.8336 26.1607C19.3593 26.7161 18.9027 27.1403 18.4416 27.4359C17.9345 27.7682 17.3354 27.9458 16.7265 27.9458C16.3142 27.9614 15.902 27.9121 15.5053 27.7997C15.1646 27.686 14.8274 27.5627 14.4956 27.4219C14.1506 27.2653 13.7948 27.1329 13.431 27.0257C12.5316 26.7974 11.5886 26.7959 10.6885 27.0213C10.3195 27.1263 9.9646 27.2487 9.61416 27.3992C9.12124 27.6038 8.79381 27.7411 8.60442 27.7997C8.22655 27.909 7.83451 27.9773 7.43805 28C6.82478 28 6.2531 27.8268 5.68673 27.4761L5.70177 27.4639ZM13.7903 5.93584C12.9885 6.33203 12.223 6.50083 11.4628 6.44573C11.3434 5.68921 11.4628 4.9152 11.7805 4.06772C12.051 3.34974 12.4507 2.68603 12.9602 2.10864C13.4982 1.50082 14.1511 1.00261 14.8823 0.641949C15.6611 0.24576 16.4035 0.0314852 17.1133 0C17.2053 0.792379 17.1133 1.57164 16.8186 2.41387C16.5459 3.15839 16.147 3.85163 15.6389 4.46391C15.1204 5.07256 14.4841 5.5727 13.7673 5.93497L13.7903 5.93584Z" fill="white"/>
</svg>
